<?xml version="1.0"?>
<svg xmlns="http://www.w3.org/2000/svg" id="Layer_3" enable-background="new 0 0 64 64" height="512px" viewBox="0 0 64 64" width="512px" class="hovered-paths"><g><path d="m32 2c-5.523 0-10 4.477-10 10 0 2.585.906 5.087 2.561 7.073l7.439 8.927 7.439-8.927c1.655-1.986 2.561-4.488 2.561-7.073 0-5.523-4.477-10-10-10zm0 16c-3.314 0-6-2.686-6-6s2.686-6 6-6 6 2.686 6 6-2.686 6-6 6z" fill="#f4b2b0" data-original="#F4B2B0" class="active-path" data-old_color="#f4b2b0" style="fill:#EBBA16"/><g fill="#b3404a"><path d="m39 12c0-3.859-3.14-7-7-7s-7 3.141-7 7 3.14 7 7 7 7-3.141 7-7zm-12 0c0-2.757 2.243-5 5-5s5 2.243 5 5-2.243 5-5 5-5-2.243-5-5z" data-original="#000000" class="hovered-path" style="fill:#EBBA16" data-old_color="#000000"/><path d="m63 25c0-3.309-2.691-6-6-6s-6 2.691-6 6c0 2.967 2.167 5.431 5 5.91v4.424c-2.319-1.47-5.058-2.334-8-2.334h-2v-2.09c2.833-.478 5-2.942 5-5.91 0-3.309-2.691-6-6-6s-6 2.691-6 6c0 2.967 2.167 5.431 5 5.91v2.09h-28c-1.654 0-3-1.346-3-3s1.346-3 3-3h13.865l1.367 1.641c.19.227.471.359.768.359s.578-.132.768-.359l7.44-8.928c1.8-2.161 2.792-4.901 2.792-7.713 0-6.065-4.935-11-11-11s-11 4.935-11 11c0 1.018.134 2.025.385 3h-5.385c-8.271 0-15 6.729-15 15s6.729 15 15 15h32c1.654 0 3 1.346 3 3s-1.346 3-3 3h-47v2h47c2.757 0 5-2.243 5-5s-2.243-5-5-5h-32c-7.168 0-13-5.832-13-13s5.832-13 13-13h6.091c.442.97 1.011 1.885 1.701 2.714l1.636 1.963v.323h.269l2.5 3h-12.197c-2.757 0-5 2.243-5 5s2.243 5 5 5h32c7.168 0 13 5.832 13 13s-5.832 13-13 13h-47v2h47c8.271 0 15-6.729 15-15 0-4.428-1.939-8.401-5-11.149v-5.941c2.833-.479 5-2.943 5-5.91zm-22 0c0-2.206 1.794-4 4-4s4 1.794 4 4c0 1.859-1.28 3.411-3 3.858v-2.444l1.707-1.707-1.414-1.414-2 2c-.188.187-.293.441-.293.707v2.858c-1.72-.447-3-1.999-3-3.858zm-18-13c0-4.963 4.038-9 9-9s9 4.037 9 9c0 2.346-.827 4.63-2.329 6.433l-6.671 8.005-6.671-8.005c-1.502-1.803-2.329-4.087-2.329-6.433zm30 13c0-2.206 1.794-4 4-4s4 1.794 4 4c0 1.859-1.28 3.411-3 3.858v-2.444l1.707-1.707-1.414-1.414-2 2c-.188.187-.293.441-.293.707v2.858c-1.72-.447-3-1.999-3-3.858z" data-original="#000000" class="hovered-path" style="fill:#EBBA16" data-old_color="#000000"/><path d="m60 5h-3c-.551 0-1-.448-1-1 0-1.654-1.346-3-3-3h-7c-1.654 0-3 1.346-3 3s1.346 3 3 3h3c.551 0 1 .448 1 1 0 1.654 1.346 3 3 3h7c1.654 0 3-1.346 3-3s-1.346-3-3-3zm0 4h-7c-.551 0-1-.448-1-1 0-1.654-1.346-3-3-3h-3c-.551 0-1-.448-1-1s.449-1 1-1h7c.551 0 1 .448 1 1 0 1.654 1.346 3 3 3h3c.551 0 1 .448 1 1s-.449 1-1 1z" data-original="#000000" class="hovered-path" style="fill:#EBBA16" data-old_color="#000000"/><path d="m7 7c.551 0 1 .448 1 1 0 1.654 1.346 3 3 3h7c1.654 0 3-1.346 3-3s-1.346-3-3-3h-3c-.551 0-1-.448-1-1 0-1.654-1.346-3-3-3h-7c-1.654 0-3 1.346-3 3s1.346 3 3 3zm-4-3c0-.552.449-1 1-1h7c.551 0 1 .448 1 1 0 1.654 1.346 3 3 3h3c.551 0 1 .448 1 1s-.449 1-1 1h-7c-.551 0-1-.448-1-1 0-1.654-1.346-3-3-3h-3c-.551 0-1-.448-1-1z" data-original="#000000" class="hovered-path" style="fill:#EBBA16" data-old_color="#000000"/><path d="m34 56h4v2h-4z" data-original="#000000" class="hovered-path" style="fill:#EBBA16" data-old_color="#000000"/><path d="m26 56h4v2h-4z" data-original="#000000" class="hovered-path" style="fill:#EBBA16" data-old_color="#000000"/><path d="m42 56h4v2h-4z" data-original="#000000" class="hovered-path" style="fill:#EBBA16" data-old_color="#000000"/><path d="m54.428 40.339-1.287 1.531c.908.763 1.647 1.733 2.138 2.806l1.818-.832c-.612-1.34-1.535-2.552-2.669-3.505z" data-original="#000000" class="hovered-path" style="fill:#EBBA16" data-old_color="#000000"/><path d="m2 56h4v2h-4z" data-original="#000000" class="hovered-path" style="fill:#EBBA16" data-old_color="#000000"/><path d="m18 56h4v2h-4z" data-original="#000000" class="hovered-path" style="fill:#EBBA16" data-old_color="#000000"/><path d="m10 56h4v2h-4z" data-original="#000000" class="hovered-path" style="fill:#EBBA16" data-old_color="#000000"/><path d="m49.764 55.805.438 1.951c1.439-.323 2.815-.979 3.98-1.896l-1.237-1.572c-.932.733-2.032 1.258-3.181 1.517z" data-original="#000000" class="hovered-path" style="fill:#EBBA16" data-old_color="#000000"/><path d="m38.285 38h4v2h-4z" data-original="#000000" class="hovered-path" style="fill:#EBBA16" data-old_color="#000000"/><path d="m22.285 38h4v2h-4z" data-original="#000000" class="hovered-path" style="fill:#EBBA16" data-old_color="#000000"/><path d="m46.285 38v2h1.715c.681 0 1.357.086 2.011.254l.5-1.936c-.817-.211-1.662-.318-2.511-.318z" data-original="#000000" class="hovered-path" style="fill:#EBBA16" data-old_color="#000000"/><path d="m30.285 38h4v2h-4z" data-original="#000000" class="hovered-path" style="fill:#EBBA16" data-old_color="#000000"/><path d="m10.07 38.052 1.187-1.609c-.953-.703-1.751-1.624-2.311-2.665l-1.762.945c.698 1.3 1.696 2.452 2.886 3.329z" data-original="#000000" class="hovered-path" style="fill:#EBBA16" data-old_color="#000000"/><path d="m17.429 20h4v2h-4z" data-original="#000000" class="hovered-path" style="fill:#EBBA16" data-old_color="#000000"/><path d="m6.774 26.135c-.514 1.226-.774 2.527-.774 3.865 0 .161.004.319.011.477l1.998-.096c-.006-.126-.009-.253-.009-.381 0-1.071.208-2.112.619-3.092z" data-original="#000000" class="hovered-path" style="fill:#EBBA16" data-old_color="#000000"/><path d="m14.483 37.856-.375 1.965c.622.118 1.258.179 1.892.179h2.285v-2h-2.285c-.508 0-1.019-.048-1.517-.144z" data-original="#000000" class="hovered-path" style="fill:#EBBA16" data-old_color="#000000"/><path d="m13.746 22.32-.563-1.92c-1.414.415-2.746 1.157-3.85 2.146l1.334 1.49c.883-.791 1.948-1.385 3.079-1.716z" data-original="#000000" class="hovered-path" style="fill:#EBBA16" data-old_color="#000000"/><path d="m56.961 52.441c.665-1.339 1.014-2.779 1.038-4.283l-2-.031c-.019 1.203-.297 2.355-.829 3.426z" data-original="#000000" class="hovered-path" style="fill:#EBBA16" data-old_color="#000000"/></g></g> </svg>
