<?xml version="1.0"?>
<svg xmlns="http://www.w3.org/2000/svg" id="Layer_3" enable-background="new 0 0 64 64" height="512px" viewBox="0 0 64 64" width="512px"><g><path d="m54 56c-2.202 0-4.271.857-5.828 2.414l-.758.758c-1.179 1.179-2.747 1.828-4.414 1.828s-3.235-.649-4.414-1.828l-.758-.758c-1.557-1.557-3.626-2.414-5.828-2.414s-4.271.857-5.828 2.414l-.758.758c-1.179 1.179-2.747 1.828-4.414 1.828s-3.235-.649-4.414-1.828l-.758-.758c-1.557-1.557-3.626-2.414-5.828-2.414s-4.271.857-5.828 2.414l-2.879 2.879 1.414 1.414 2.879-2.879c1.179-1.179 2.747-1.828 4.414-1.828s3.235.649 4.414 1.828l.758.758c1.557 1.557 3.626 2.414 5.828 2.414s4.271-.857 5.828-2.414l.758-.758c1.179-1.179 2.747-1.828 4.414-1.828s3.235.649 4.414 1.828l.758.758c1.557 1.557 3.626 2.414 5.828 2.414s4.271-.857 5.828-2.414l.758-.758c1.179-1.179 2.747-1.828 4.414-1.828s3.235.649 4.414 1.828l2.879 2.879 1.414-1.414-2.879-2.879c-1.557-1.557-3.626-2.414-5.828-2.414z" data-original="#000000" class="active-path" data-old_color="#000000" fill="#EBBA16"/><path d="m31 1h2v14h-2z" data-original="#000000" class="active-path" data-old_color="#000000" fill="#EBBA16"/><path d="m7.5 7.308h2v18.385h-2z" transform="matrix(.707 -.707 .707 .707 -9.178 10.843)" data-original="#000000" class="active-path" data-old_color="#000000" fill="#EBBA16"/><path d="m46.308 15.5h18.385v2h-18.385z" transform="matrix(.707 -.707 .707 .707 4.588 44.077)" data-original="#000000" class="active-path" data-old_color="#000000" fill="#EBBA16"/><path d="m20 9.469h2v8.062h-2z" transform="matrix(.868 -.496 .496 .868 -3.931 12.198)" data-original="#000000" class="active-path" data-old_color="#000000" fill="#EBBA16"/><path d="m38.969 12.5h8.062v2h-8.062z" transform="matrix(.496 -.868 .868 .496 9.945 44.137)" data-original="#000000" class="active-path" data-old_color="#000000" fill="#EBBA16"/><path d="m5 25.228h2.001v8.544h-2.001z" transform="matrix(.351 -.936 .936 .351 -23.727 24.75)" data-original="#000000" class="active-path" data-old_color="#000000" fill="#EBBA16"/><path d="m53.728 28.5h8.544v2.001h-8.544z" transform="matrix(.936 -.351 .351 .936 -6.665 22.243)" data-original="#000000" class="active-path" data-old_color="#000000" fill="#EBBA16"/><path d="m47.271 51.302c2.438-3.289 3.729-7.194 3.729-11.302 0-10.477-8.523-19-19-19s-19 8.523-19 19c0 4.108 1.29 8.013 3.728 11.301-.047-.044-.097-.083-.142-.129l-.758-.758c-1.557-1.557-3.626-2.414-5.828-2.414s-4.271.857-5.828 2.414l-2.879 2.879 1.414 1.414 2.879-2.879c1.179-1.179 2.747-1.828 4.414-1.828s3.235.649 4.414 1.828l.758.758c1.557 1.557 3.626 2.414 5.828 2.414s4.271-.857 5.828-2.414l.758-.758c1.179-1.179 2.747-1.828 4.414-1.828s3.235.649 4.414 1.828l.758.758c1.557 1.557 3.626 2.414 5.828 2.414s4.271-.857 5.828-2.414l.758-.758c1.179-1.179 2.747-1.828 4.414-1.828s3.235.649 4.414 1.828l2.879 2.879 1.414-1.414-2.879-2.879c-1.557-1.557-3.626-2.414-5.828-2.414s-4.271.857-5.828 2.414l-.758.758" data-original="#000000" class="active-path" data-old_color="#000000" fill="#EBBA16"/></g> </svg>
